<svg width="722" height="267" viewBox="0 0 722 267" fill="none" xmlns="http://www.w3.org/2000/svg">
<path d="M203.486 37.9843C203.486 37.9843 175.606 77.682 207.589 119.726C239.571 161.771 295.436 218.091 346.25 241.264C397.065 264.437 441.357 225.717 435.044 164.802C428.732 103.886 430.836 71.8153 383.178 33.0954C335.519 -5.62455 231.471 -15.5979 203.486 37.9843Z" fill="#65C2FF"/>
<path d="M572.283 80.4789C572.283 80.4789 526.308 100.523 517.576 142.568C508.844 184.612 518.313 240.248 562.815 256.479C607.317 272.71 691.272 272.025 711.682 228.025C732.092 183.928 719.677 112.061 682.434 86.9322C645.297 61.9012 594.166 71.9722 572.283 80.4789Z" fill="#a7e657"/>
<path d="M0 181.139V167.157L52.1823 97.8326H1.36768V80.0371H79.5359V93.9215L27.4588 163.246H80.9035V181.139H0Z" fill="#111111"/>
<path d="M114.99 133.717H146.762C146.657 128.437 145.289 124.428 142.449 121.593C139.608 118.757 135.821 117.388 130.981 117.388C126.142 117.388 122.46 118.757 119.724 121.593C116.989 124.428 115.411 128.437 114.99 133.717ZM102.786 171.753C95.2112 164.517 91.4238 154.739 91.4238 142.224C91.4238 129.806 94.8956 120.028 101.944 112.988C108.888 105.851 118.462 102.331 130.455 102.331C142.344 102.331 151.602 105.459 157.914 111.717C164.226 117.877 167.383 126.482 167.383 137.531V147.699H114.464C114.78 153.273 116.673 157.673 120.25 160.802C123.827 163.93 128.772 165.495 135.19 165.495C144.553 165.495 153.811 163.637 162.859 159.824V176.544C155.284 180.553 145.289 182.508 132.77 182.508C120.356 182.508 110.361 178.89 102.786 171.753Z" fill="#111111"/>
<path d="M186.531 181.139V103.797H203.89L206.941 113.771H208.204C213.254 106.144 221.881 102.331 233.769 102.331C243.448 102.331 250.812 104.775 255.862 109.664C260.807 114.553 263.332 121.495 263.332 130.686V181.139H240.607V136.064C240.607 130.491 239.555 126.286 237.451 123.548C235.347 120.713 231.875 119.344 227.246 119.344C220.934 119.344 216.305 121.299 213.464 125.308C210.623 129.219 209.256 135.673 209.256 144.864V181.139H186.531Z" fill="#111111"/>
<rect x="303" y="63.5957" width="350" height="125" fill="white"/>
<path d="M512.234 123.451C515.367 118.855 520.067 116.508 526.236 116.508C532.503 116.508 537.203 118.562 540.336 122.571C543.47 126.677 545.037 133.424 545.037 143.104V145.353C544.939 153.762 543.372 159.824 540.336 163.637C537.301 167.353 532.405 169.21 525.649 169.21C513.605 169.21 507.632 160.508 507.632 143.202C507.632 134.695 509.198 128.046 512.234 123.451Z" fill="#111111"/>
<path d="M614.265 115.726C609.173 115.726 604.963 117.29 601.829 120.615C598.696 123.841 596.835 128.535 596.248 134.793H631.107C631.009 128.535 629.442 123.744 626.505 120.517C623.567 117.29 619.455 115.726 614.265 115.726Z" fill="#111111"/>
<path d="M440.459 116.508C433.605 116.508 428.709 118.757 425.575 123.353C422.54 127.851 420.973 134.304 420.973 142.713C420.973 160.41 427.534 169.21 440.557 169.21C453.58 169.21 460.043 160.41 460.043 142.908C460.043 125.308 453.482 116.508 440.459 116.508Z" fill="#111111"/>
<path fill-rule="evenodd" clip-rule="evenodd" d="M677.076 45.033H289.553V221.815H677.076V45.033ZM547.876 181.139H560.508V73.486H544.253V101.353C544.253 104.579 544.253 108.815 544.645 114.357C539.357 106.926 531.818 103.21 521.928 103.21C512.038 103.21 504.498 106.73 499.113 113.673C493.727 120.713 491.083 130.393 491.083 142.908C491.083 155.424 493.727 165.104 499.015 172.046C504.302 178.988 511.842 182.508 521.732 182.508C531.524 182.508 539.064 178.695 544.253 170.97H545.037L547.876 181.139ZM595.955 146.526H647.362V137.726C647.362 126.97 644.424 118.562 638.451 112.402C632.478 106.339 624.253 103.21 613.678 103.21C603.201 103.21 594.877 106.828 588.709 113.966C582.54 121.202 579.406 130.882 579.406 143.202C579.406 155.522 582.833 165.201 589.492 172.046C596.15 179.086 605.453 182.508 617.301 182.508C627.484 182.508 636.199 180.748 643.543 177.326V164.126C635.024 167.744 626.995 169.602 619.259 169.602C611.622 169.602 605.844 167.646 602.026 163.637C598.207 159.628 596.248 153.957 595.955 146.526ZM466.995 171.948C460.63 178.988 451.72 182.508 440.361 182.508C433.213 182.508 426.946 180.846 421.463 177.619C415.979 174.393 411.769 169.797 408.831 163.735C405.894 157.673 404.425 150.73 404.425 142.713C404.425 130.295 407.558 120.615 413.923 113.673C420.19 106.73 429.003 103.21 440.361 103.21C451.72 103.21 460.63 106.828 466.995 113.966C473.36 121.104 476.591 130.784 476.591 143.006C476.591 155.326 473.458 165.006 466.995 171.948ZM363.005 168.33C353.115 168.33 345.478 165.104 340.288 158.748C335 152.393 332.455 143.202 332.455 131.077C332.455 118.953 335.098 109.566 340.582 102.819C346.065 96.0727 353.507 92.7483 363.005 92.7483C369.664 92.7483 377.301 94.8016 385.918 98.8105L391.793 85.0238C383.079 80.7216 373.678 78.5705 363.593 78.5705C353.409 78.5705 344.792 80.6238 337.644 84.8282C330.398 89.0327 325.013 95.0949 321.39 102.917C317.669 110.837 315.906 120.028 315.906 130.49C315.906 147.21 319.725 160.117 327.363 169.015C335 178.01 346.163 182.508 361.047 182.508C371.133 182.508 380.043 180.944 388.073 178.01V163.735C378.183 166.766 369.86 168.33 363.005 168.33Z" fill="#111111"/>
</svg>
